<svg class="SVGInline-svg" width="16" height="11" viewBox="0 0 16 11" fill="none"
    xmlns="http://www.w3.org/2000/svg">
    <path d="M9.532 5.895c0 .825-.672 1.493-1.502 1.493S6.528 6.72 6.528 5.895c0-.824.673-1.492 1.502-1.492.83 0 1.502.668 1.502 1.492z"></path>
    <path fillRule="evenodd" clipRule="evenodd" d="M3.004 2.483A8.82 8.82 0 0 0 0 5.985a9.1 9.1 0 0 0 2.904 3.383 8.884 8.884 0 0 0 10.746-.386A8.783 8.783 0 0 0 16 5.985a8.843 8.843 0 0 0-3.184-3.592 9.053 9.053 0 0 0-9.812.09zm3.06.567a3.52 3.52 0 0 1 4.424.433 3.472 3.472 0 0 1 .436 4.397A3.5 3.5 0 0 1 9.35 9.163a3.525 3.525 0 0 1-3.819-.755 3.462 3.462 0 0 1-.76-3.795A3.487 3.487 0 0 1 6.063 3.05z"></path>
</svg>